<?xml version='1.0' encoding='utf-8'?>
<svg xmlns="http://www.w3.org/2000/svg" width="240" height="240" viewBox="0 0 240 240" fill="none" class="premiere-pro-2025">
<path id="Vector" d="M196.959 0H43.0414C19.2703 0 0 19.2703 0 43.0414V196.959C0 220.73 19.2703 240 43.0414 240H196.959C220.73 240 240 220.73 240 196.959V43.0414C240 19.2703 220.73 0 196.959 0Z" fill="#00005B" />
<path id="Vector_2" d="M92.5516 63.7059C123.925 63.7059 141.594 78.4019 141.594 103.005C141.594 131.737 117.65 143.296 95.1933 143.296H80.002V174.339H49.2894V63.7059H92.5516ZM80.002 89.9604V117.041H93.5427C102.955 117.041 109.559 113.243 109.559 103.666C109.559 94.9144 103.945 89.9604 94.2027 89.9604H80.002Z" fill="#9999FF" />
<path id="Vector_3" d="M184.411 86.6581C191.181 86.6581 196.63 87.4837 199.107 88.3093V110.766C197.125 110.271 193.327 109.94 190.19 109.94C184.081 109.94 180.613 110.436 177.475 111.592V174.339H148.579V93.9235C158.981 89.3001 169.385 86.6581 184.411 86.6581Z" fill="#9999FF" />
<defs>
<clipPath id="clip0_2136_9240">
<rect width="240" height="240" fill="white" />
</clipPath>
</defs>
</svg>